<svg width="24" height="24" viewBox="0 0 24 24" fill="none" xmlns="http://www.w3.org/2000/svg">
<path d="M5.69439 6.43046C11.0209 5.09322 17.643 5.17521 19.1735 6.91799C20.704 8.66077 20.6724 14.4882 18.8834 16.0872C17.0954 17.6862 9.33039 17.8382 6.87039 16.0872C4.27139 14.2362 5.77939 8.54222 5.69439 5.09322C5.74539 3.16322 3.65039 2.85022 3.65039 2.85022" stroke="white" stroke-width="1.5" stroke-linecap="round" stroke-linejoin="round"/>
<path d="M14.1562 10.7198H16.9292" stroke="white" stroke-width="1.5" stroke-linecap="round" stroke-linejoin="round"/>
<path fill-rule="evenodd" clip-rule="evenodd" d="M7.26424 20.1275C7.56424 20.1275 7.80824 20.3715 7.80824 20.6715C7.80824 20.9725 7.56424 21.2165 7.26424 21.2165C6.96324 21.2165 6.71924 20.9725 6.71924 20.6715C6.71924 20.3715 6.96324 20.1275 7.26424 20.1275Z" fill="white" stroke="white" stroke-width="1.5" stroke-linecap="round" stroke-linejoin="round"/>
<path fill-rule="evenodd" clip-rule="evenodd" d="M17.5958 20.1275C17.8968 20.1275 18.1408 20.3715 18.1408 20.6715C18.1408 20.9725 17.8968 21.2165 17.5958 21.2165C17.2958 21.2165 17.0518 20.9725 17.0518 20.6715C17.0518 20.3715 17.2958 20.1275 17.5958 20.1275Z" fill="white" stroke="white" stroke-width="1.5" stroke-linecap="round" stroke-linejoin="round"/>
</svg>
