<svg width="40" height="40" viewBox="0 0 40 40" fill="none" xmlns="http://www.w3.org/2000/svg">
<path d="M40 20C40 8.95431 31.0457 0 20 0C8.95431 0 0 8.95431 0 20C0 31.0457 8.95431 40 20 40C31.0457 40 40 31.0457 40 20Z" fill="white"/>
<path d="M23.9304 9.79758L29.0403 19.7309C29.0764 19.801 29.0609 19.8867 29.0025 19.9397L18.1618 29.7775C18.1205 29.815 18.0857 29.8244 18.0587 29.8259C18.027 29.8277 17.9888 29.819 17.9524 29.7963C17.916 29.7735 17.8914 29.7431 17.8791 29.7138C17.8686 29.6889 17.8617 29.6535 17.8773 29.5999L23.608 9.82878C23.6519 9.67736 23.8583 9.65738 23.9304 9.79758Z" fill="white" stroke="#133E5D" stroke-width="1.04576"/>
<path d="M18.241 9.79758L23.3509 19.7309C23.387 19.801 23.3714 19.8867 23.313 19.9397L12.4724 29.7775C12.431 29.815 12.3962 29.8244 12.3692 29.8259C12.3375 29.8277 12.2994 29.819 12.2629 29.7963C12.2265 29.7735 12.202 29.7431 12.1897 29.7138C12.1792 29.6889 12.1723 29.6535 12.1878 29.5999L17.9186 9.82878C17.9625 9.67736 18.1689 9.65738 18.241 9.79758Z" fill="#3877FF" stroke="#133E5D" stroke-width="1.04576"/>
</svg>
